<?xml version="1.0" encoding="UTF-8" standalone="no"?>
<!DOCTYPE svg PUBLIC "-//W3C//DTD SVG 1.1//EN" "http://www.w3.org/Graphics/SVG/1.1/DTD/svg11.dtd">
<!-- Generated by Microsoft Visio, SVG Export panel4.svg Page-1 -->
<svg xmlns="http://www.w3.org/2000/svg" xmlns:xlink="http://www.w3.org/1999/xlink" xmlns:ev="http://www.w3.org/2001/xml-events"
		width="12.4155in" height="9.06901in" viewBox="0 0 893.913 652.969" xml:space="preserve" color-interpolation-filters="sRGB"
		class="st4">
	<style type="text/css">
	<![CDATA[
		.st1 {fill:#ffffff;stroke:#000000;stroke-linecap:round;stroke-linejoin:round;stroke-width:1}
		.st2 {fill:none;stroke:none;stroke-linecap:round;stroke-linejoin:round;stroke-width:1}
		.st3 {fill:#000000;font-family:Calibri;font-size:1.5em;font-weight:bold}
		.st4 {fill:none;fill-rule:evenodd;font-size:12px;overflow:visible;stroke-linecap:square;stroke-miterlimit:3}
	]]>
	</style>

	<g>
		<title>Page-1</title>
		<g id="shape21-1" transform="translate(0.5,-0.5)">
			<title>Sheet.21</title>
			<rect x="0" y="1.00003" width="892.913" height="651.969" class="st1"/>
		</g>
		<g id="group30-3" transform="translate(98.437,-110.059)">
			<title>Sheet.30</title>
			<g id="shape27-4" transform="translate(13.0394,1.13687E-13)">
				<title>Sheet.27</title>
				<path d="M6.26 624.62 L47.59 624.62 A5.66929 5.66929 0 0 1 53.23 630.86 L51.53 647.86 A5.66929 5.66929 0 0 1 45.89
							 652.97 L7.97 652.97 A5.66929 5.66929 0 0 1 2.32 647.86 L0.62 630.86 A5.66929 5.66929 0 0 1 6.26 624.62
							 Z" class="st1"/>
			</g>
			<g id="shape28-6" transform="translate(70.8661,-10.063)">
				<title>Sheet.28</title>
				<ellipse cx="4.53543" cy="648.433" rx="4.53543" ry="4.53543" class="st1"/>
			</g>
			<g id="shape29-8" transform="translate(-7.99361E-15,-9.6378)">
				<title>Sheet.29</title>
				<ellipse cx="4.53543" cy="648.433" rx="4.53543" ry="4.53543" class="st1"/>
			</g>
		</g>
		<g id="group31-10" transform="translate(256.894,-110.65)">
			<title>Sheet.31</title>
			<g id="shape32-11" transform="translate(13.0394,1.13687E-13)">
				<title>Sheet.32</title>
				<path d="M6.26 624.62 L47.59 624.62 A5.66929 5.66929 0 0 1 53.23 630.86 L51.53 647.86 A5.66929 5.66929 0 0 1 45.89
							 652.97 L7.97 652.97 A5.66929 5.66929 0 0 1 2.32 647.86 L0.62 630.86 A5.66929 5.66929 0 0 1 6.26 624.62
							 Z" class="st1"/>
			</g>
			<g id="shape33-13" transform="translate(70.8661,-10.063)">
				<title>Sheet.33</title>
				<ellipse cx="4.53543" cy="648.433" rx="4.53543" ry="4.53543" class="st1"/>
			</g>
			<g id="shape34-15" transform="translate(-7.99361E-15,-9.6378)">
				<title>Sheet.34</title>
				<ellipse cx="4.53543" cy="648.433" rx="4.53543" ry="4.53543" class="st1"/>
			</g>
		</g>
		<g id="group35-17" transform="translate(424.421,-110.65)">
			<title>Sheet.35</title>
			<g id="shape36-18" transform="translate(13.0394,1.13687E-13)">
				<title>Sheet.36</title>
				<path d="M6.26 624.62 L47.59 624.62 A5.66929 5.66929 0 0 1 53.23 630.86 L51.53 647.86 A5.66929 5.66929 0 0 1 45.89
							 652.97 L7.97 652.97 A5.66929 5.66929 0 0 1 2.32 647.86 L0.62 630.86 A5.66929 5.66929 0 0 1 6.26 624.62
							 Z" class="st1"/>
			</g>
			<g id="shape37-20" transform="translate(70.8661,-10.063)">
				<title>Sheet.37</title>
				<ellipse cx="4.53543" cy="648.433" rx="4.53543" ry="4.53543" class="st1"/>
			</g>
			<g id="shape38-22" transform="translate(-7.99361E-15,-9.6378)">
				<title>Sheet.38</title>
				<ellipse cx="4.53543" cy="648.433" rx="4.53543" ry="4.53543" class="st1"/>
			</g>
		</g>
		<g id="shape39-24" transform="translate(107.224,-67.5394)">
			<title>Sheet.39</title>
			<desc>Serial 1 Serial 2 AUX</desc>
			<rect x="0" y="611.866" width="402.52" height="41.1024" class="st2"/>
			<text x="4" y="637.82" class="st3">Serial 1                          Serial 2                              AUX</text>		</g>
		<g id="shape40-27" transform="translate(707.461,-107.224)">
			<title>Sheet.40</title>
			<ellipse cx="17.7165" cy="635.252" rx="17.7165" ry="17.7165" class="st1"/>
		</g>
		<g id="shape41-29" transform="translate(787.539,-106.516)">
			<title>Sheet.41</title>
			<ellipse cx="17.7165" cy="635.252" rx="17.7165" ry="17.7165" class="st1"/>
		</g>
	</g>
</svg>
