<?xml version="1.0" encoding="UTF-8" standalone="no"?>
<!DOCTYPE svg PUBLIC "-//W3C//DTD SVG 1.1//EN" "http://www.w3.org/Graphics/SVG/1.1/DTD/svg11.dtd">
<!-- Generated by Microsoft Visio, SVG Export panel6.svg Page-1 -->
<svg xmlns="http://www.w3.org/2000/svg" xmlns:xlink="http://www.w3.org/1999/xlink" xmlns:ev="http://www.w3.org/2001/xml-events"
		width="12.4155in" height="9.14775in" viewBox="0 0 893.913 658.638" xml:space="preserve" color-interpolation-filters="sRGB"
		class="st4">
	<style type="text/css">
	<![CDATA[
		.st1 {fill:#ffffff;stroke:#000000;stroke-linecap:round;stroke-linejoin:round;stroke-width:1}
		.st2 {fill:none;stroke:none;stroke-linecap:round;stroke-linejoin:round;stroke-width:1}
		.st3 {fill:#000000;font-family:Calibri;font-size:1.66667em}
		.st4 {fill:none;fill-rule:evenodd;font-size:12px;overflow:visible;stroke-linecap:square;stroke-miterlimit:3}
	]]>
	</style>

	<g>
		<title>Page-1</title>
		<g id="shape1-1" transform="translate(659.138,0.5) rotate(90)">
			<title>Sheet.1</title>
			<rect x="0" y="-234.276" width="657.638" height="892.913" class="st1"/>
		</g>
		<g id="shape2-3" transform="translate(871.736,107.083) rotate(90)">
			<title>Sheet.2</title>
			<rect x="0" y="176.748" width="368.504" height="481.89" rx="5.66929" ry="5.66929" class="st1"/>
		</g>
		<g id="shape3-5" transform="translate(1406.21,456.59) rotate(90)">
			<title>Sheet.3</title>
			<ellipse cx="8.3622" cy="650.276" rx="8.3622" ry="8.3622" class="st1"/>
		</g>
		<g id="shape4-7" transform="translate(1467.01,456.397) rotate(90)">
			<title>Sheet.4</title>
			<ellipse cx="8.7874" cy="649.85" rx="8.7874" ry="8.7874" class="st1"/>
		</g>
		<g id="group13-9" transform="translate(84.2638,-181.204)">
			<title>Sheet.13</title>
			<g id="shape7-10" transform="translate(1.27561,-4.53544)">
				<title>Sheet.7</title>
				<rect x="0" y="627.457" width="14.1732" height="31.1811" class="st1"/>
			</g>
			<g id="shape8-12" transform="translate(15.4488,-4.53544)">
				<title>Sheet.8</title>
				<rect x="0" y="627.457" width="14.1732" height="31.1811" class="st1"/>
			</g>
			<g id="shape9-14" transform="translate(29.622,-4.53544)">
				<title>Sheet.9</title>
				<rect x="0" y="627.457" width="14.1732" height="31.1811" class="st1"/>
			</g>
			<g id="shape5-16">
				<title>Sheet.5</title>
				<desc>f</desc>
				<rect x="0" y="618.386" width="16.7244" height="40.252" class="st2"/>
				<text x="5.31" y="644.51" class="st3">f</text>			</g>
			<g id="shape10-19" transform="translate(14.1732,-0.858984)">
				<title>Sheet.10</title>
				<desc>t</desc>
				<rect x="0" y="618.386" width="16.7244" height="40.252" class="st2"/>
				<text x="5.01" y="644.51" class="st3">t</text>			</g>
			<g id="shape11-22" transform="translate(26.8304,1.13687E-13)">
				<title>Sheet.11</title>
				<desc>1</desc>
				<rect x="0" y="618.386" width="16.7244" height="40.252" class="st2"/>
				<text x="4" y="644.51" class="st3">1</text>			</g>
		</g>
		<g id="shape14-25" transform="translate(1101.34,607.114) rotate(90)">
			<title>Sheet.14</title>
			<rect x="0" y="471.551" width="51.0236" height="187.087" class="st1"/>
		</g>
	</g>
</svg>
